<svg xmlns="http://www.w3.org/2000/svg" width="32" height="32" viewBox="0 0 44 50" class="animelab"><path d="M21.607.106c.131-.121.263.031.356.12.262.125.552.206.74.441.295.159.596.324.914.442.386.421 1.021.475 1.4.899.341.075.621.304.894.514.229.091.445.213.658.333.19.036.31.196.463.3.374.187.776.343 1.085.633.077.087.22.046.297.134.203.2.532.2.73.407.275.294.728.317.993.63.303.13.582.31.888.432.085.073.16.157.238.239.275.077.516.239.772.362.216.09.353.304.584.366.332.187.695.307.975.572.282.131.585.24.774.504.426.155.845.362 1.192.66.303.112.57.302.87.422.345.31.8.455 1.196.685.204.286.59.292.842.52.395.343.958.425 1.328.802.331.114.614.339.929.483.235.314.685.297.939.584.374.297.9.373 1.22.743.188.05.446.132.475.351-.002 8.232.003 16.464-.003 24.695-.09.117-.209.23-.362.251-.193.031-.266.262-.455.31-.358.19-.761.32-1.044.624-.296.113-.6.22-.813.464-.28.1-.509.303-.784.41-.187.045-.28.247-.46.306-.378.187-.778.344-1.092.633a9.317 9.317 0 00-.87.43c-.209.232-.511.32-.78.463a2.52 2.52 0 01-.31.241c-.29.1-.535.295-.826.395-.347.298-.766.505-1.192.66-.253.37-.744.399-1.04.717-.304.136-.593.316-.903.449-.337.29-.75.481-1.162.638-.33.417-.93.46-1.306.827-.238.176-.56.223-.774.438-.193.234-.536.232-.755.431-.077.1-.23.058-.312.147-.395.396-.99.486-1.389.877-.279.1-.544.244-.767.442-.212.156-.494.2-.681.392-.197.018-.346.119-.472.267-.373.23-.829.348-1.145.666-.397.218-.875.337-1.186.69-.237.115-.507.182-.69.384-.14.043-.217-.081-.31-.156-.263-.126-.554-.205-.74-.442-.296-.158-.597-.326-.917-.44-.382-.425-1.02-.475-1.397-.901-.342-.073-.622-.303-.894-.514a5.482 5.482 0 01-.658-.332c-.191-.036-.311-.197-.464-.301-.373-.187-.776-.342-1.084-.633-.077-.088-.222-.045-.297-.134-.203-.202-.533-.2-.73-.407-.275-.295-.73-.316-.993-.63-.304-.13-.583-.31-.888-.432-.086-.074-.161-.157-.238-.239-.276-.077-.517-.239-.773-.362-.216-.09-.353-.304-.583-.365-.331-.187-.694-.307-.973-.571-.282-.133-.588-.24-.776-.506-.426-.155-.846-.362-1.192-.66-.316-.128-.609-.306-.912-.453-.284-.297-.731-.336-1.005-.647-.294-.167-.607-.307-.91-.46-.406-.392-1.012-.472-1.41-.87-.331-.113-.612-.338-.927-.481-.236-.316-.686-.297-.94-.585-.378-.298-.904-.376-1.227-.748-.192-.027-.341-.136-.474-.271.014-5.35.002-10.7.006-16.049-.004-2.91.008-5.822-.005-8.733.133-.134.282-.243.473-.271.325-.371.85-.45 1.227-.748.255-.285.703-.271.94-.584.316-.143.596-.368.928-.483.334-.335.817-.442 1.202-.702.384-.356.947-.422 1.316-.798.172-.12.378-.181.564-.28.146-.125.293-.262.484-.314.22-.116.434-.248.67-.335.346-.298.767-.504 1.192-.66.355-.456 1-.499 1.39-.905.28-.134.576-.24.802-.458.3-.155.59-.341.913-.441.116-.124.225-.267.4-.304.237-.133.481-.25.726-.367.265-.313.717-.336.994-.63.21-.217.564-.213.769-.443.104-.038.226-.04.3-.134.391-.37.963-.462 1.348-.842.288-.091.527-.289.814-.388.273-.21.553-.44.895-.514.313-.355.805-.447 1.183-.71.372-.371.972-.406 1.322-.81.21-.152.504-.178.68-.382zm-.052 16.974c-.11.321-.283.615-.498.876a18.051 18.051 0 01-.986 1.506c-.451.855-1.056 1.616-1.547 2.447-.24.497-.634.898-.884 1.39a8.044 8.044 0 00-.786 1.247c-.785 1.115-1.469 2.299-2.224 3.434-.3.35-.51.76-.725 1.164-.315.418-.581.868-.876 1.3-.138.3-.41.51-.53.824-.24.525-.688.944-.857 1.497.646.115 1.162-.37 1.757-.515.722-.242 1.423-.542 2.14-.8.652-.316 1.396-.391 2.022-.764.298-.128.62-.19.923-.297.519-.313 1.151-.344 1.668-.659.193-.103.411-.14.614-.219.314-.07.585-.252.888-.352.19-.03.35.103.52.163.352.187.757.237 1.114.409.517.314 1.148.346 1.668.658.352.128.738.181 1.066.373.433.24.925.325 1.385.493.972.366 1.929.77 2.918 1.087.471.195.937.518 1.473.423-.032-.212-.17-.384-.277-.564a10.383 10.383 0 01-.74-1.227c-.316-.372-.536-.812-.82-1.209-.197-.333-.464-.62-.62-.978-.186-.417-.524-.738-.74-1.135-.688-1.026-1.3-2.1-2.017-3.107a7.393 7.393 0 00-.755-1.2 10.74 10.74 0 00-.722-1.087c-.523-.987-1.243-1.853-1.768-2.84-.45-.57-.769-1.226-1.207-1.803a3.55 3.55 0 01-.248-.535h-.329z" fill="#3E307C" fill-rule="evenodd"></path></svg>