<svg xmlns="http://www.w3.org/2000/svg" width="32" height="32" viewBox="0 0 50 50" class="crunchyroll"><g fill="#F78B24" fill-rule="evenodd"><path d="M22.549 49.145c-.815-.077-2.958-.456-3.753-.663-6.873-1.79-12.693-6.59-15.773-13.009C1.335 31.954.631 28.807.633 24.788c.003-4.025.718-7.235 2.38-10.686 1.243-2.584 2.674-4.609 4.706-6.66 3.8-3.834 8.614-6.208 14.067-6.936 1.783-.239 5.556-.161 7.221.148 3.463.642 6.571 1.904 9.357 3.797 5.788 3.934 9.542 9.951 10.52 16.861.21 1.48.332 4.559.19 4.816-.077.14-.117-.007-.167-.615-.25-3.015-1.528-6.66-3.292-9.388C40.253 7.836 30.249 4.32 20.987 7.467c-7.15 2.43-12.522 8.596-13.997 16.06-.73 3.692-.51 7.31.658 10.882a21.426 21.426 0 0013.247 13.518c1.475.515 3.369.944 4.618 1.047 1.496.122 1.119.239-.727.224-1.006-.008-2.013-.032-2.237-.053z"></path><path d="M27.685 46.1c-7.731-.575-14.137-6.455-15.474-14.204-.243-1.41-.29-4.047-.095-5.345 1.16-7.706 6.97-13.552 14.552-14.639 1.537-.22 4.275-.143 5.746.162 1.28.266 2.7.737 3.814 1.266l.865.411-.814.392c-2.936 1.414-4.748 4.723-4.323 7.892.426 3.173 2.578 5.664 5.667 6.56 1.112.322 2.812.322 3.925 0 1.438-.417 2.566-1.1 3.593-2.173.346-.362.652-.621.68-.576.027.046.106.545.176 1.11.171 1.395.07 4.047-.204 5.371-.876 4.218-3.08 7.758-6.463 10.374-3.2 2.476-7.434 3.711-11.645 3.399z"></path></g></svg>