<svg xmlns="http://www.w3.org/2000/svg" width="32" height="32" viewBox="0 0 50 50" class="funimation"><path d="M24.066.017a24.922 24.922 0 0113.302 3.286 25.098 25.098 0 017.833 7.058 24.862 24.862 0 014.207 9.575c.82 4.001.641 8.201-.518 12.117a24.946 24.946 0 01-4.868 9.009 24.98 24.98 0 01-7.704 6.118 24.727 24.727 0 01-10.552 2.718A24.82 24.82 0 0113.833 47.3c-5.815-2.872-10.408-8.107-12.49-14.25-2.162-6.257-1.698-13.375 1.303-19.28C5.483 8.07 10.594 3.55 16.602 1.435A24.94 24.94 0 0124.066.017zm-8.415 33.31c.464 2.284 1.939 4.358 3.99 5.48 2.174 1.217 4.765 1.444 7.202 1.181 2.002-.217 3.986-.992 5.455-2.397 1.173-1.151 2.017-2.648 2.33-4.267-1.189-.027-2.378 0-3.566-.03-.568.082-1.137-.048-1.705.014-1.232.012-2.465.003-3.697-.01-.655.066-1.309-.035-1.963.013-1.166-.053-2.334.043-3.5-.025-1.515.08-3.03-.035-4.546.042z" fill="#411299" fill-rule="evenodd"></path></svg>