<svg xmlns="http://www.w3.org/2000/svg" width="32" height="32" viewBox="0 0 50 50" class="hidive"><ellipse cx="23.58" cy="28.231" rx=".966" ry=".956"></ellipse><ellipse cx="26.426" cy="28.231" rx=".966" ry=".956"></ellipse><path d="M25.003 16.76a10.293 10.178 0 0116.47-2.65 19.93 19.707 0 00-32.94 0 10.293 10.178 0 0116.47 2.65z"></path><path d="M50 21.319a5.488 5.427 0 00-6.967-5.237 10.293 10.178 0 01-8.431 15.406 10.263 10.148 0 01.696 3.678c0 .293-.014.584-.04.87h-20.51a10.229 10.229 0 01-.04-.87 10.263 10.148 0 01.696-3.678 10.293 10.178 0 01-8.431-15.406A5.498 5.436 0 105.13 26.743l.472 7.183.864-1.45 2.45 7.038.397-2.133 5.604 6.876-.334-2.244A19.819 19.597 0 0020.9 44.5a10.312 10.197 0 01-5.954-7.177h20.118a10.312 10.197 0 01-5.955 7.177 19.819 19.597 0 006.318-2.487l-.334 2.244 5.603-6.876.397 2.134 2.45-7.037.861 1.45.474-7.183A5.5 5.438 0 0050 21.32z"></path><path d="M36.804 26.064a5.01 5.01 0 001.158-.97 5.245 5.245 0 00.581-.795 5.39 5.39 0 00.415-.883c.056-.152.104-.308.143-.465a5.047 5.047 0 00.15-.96 4.915 4.86 0 000-.486 4.848 4.793 0 00-.044-.487 4.869 4.814 0 00-.239-.959 4.856 4.801 0 00-.445-.915 4.763 4.71 0 00-.914-1.062 5.033 5.033 0 00-1.157-.74 4.954 4.954 0 00-1.762-.437 4.515 4.464 0 00-.458 0c-.15.006-.304.02-.459.042a4.604 4.552 0 00-.453.088 4.434 4.384 0 00-.445.134 4.537 4.486 0 00-.437.183 4.6 4.55 0 00-.423.232 4.391 4.342 0 00-.362.25 7.564 7.564 0 00-.334.282 4.257 4.209 0 00-.297.308 5.47 5.47 0 00-.265.33 4.53 4.48 0 00-.704 1.519 4.446 4.396 0 00-.123.826c-.008.138-.008.28 0 .418.008.139.02.282.04.418a4.17 4.124 0 00.384 1.223 4.369 4.32 0 00.223.387 4.053 4.007 0 00.496.626 4.128 4.082 0 00.6.51 4.169 4.122 0 001.413.634 4.094 4.048 0 00.77.11 3.918 3.874 0 00.779-.038 3.86 3.816 0 00.766-.196 3.737 3.695 0 00.37-.16 3.816 3.773 0 00.358-.201 3.69 3.648 0 00.576-.452 3.754 3.712 0 00.467-.544 3.792 3.75 0 00.352-.614 3.841 3.798 0 00.23-.66 3.694 3.653 0 00.098-.694 3.602 3.562 0 00-.04-.703 3.49 3.45 0 00-.524-1.347 3.351 3.314 0 00-.426-.523 3.426 3.388 0 00-.5-.415 3.51 3.471 0 00-.565-.312 3.417 3.379 0 00-.61-.201 3.38 3.342 0 00-.637-.085 3.149 3.113 0 00-1.869.518 3.032 2.998 0 00-.46.373 3.085 3.05 0 00-.374.446 3.134 3.1 0 00-.28.502 3.092 3.057 0 00-.178.541 2.972 2.938 0 00-.072.565 2.847 2.815 0 00.04.57 2.784 2.752 0 00.16.559 2.847 2.815 0 00.287.53 2.727 2.696 0 00.74.721 2.759 2.728 0 00.939.393 2.672 2.642 0 00.506.059 2.465 2.437 0 001.481-.44 2.325 2.299 0 00.347-.297 2.408 2.381 0 00.616-1.166 2.282 2.257 0 00.046-.44 2.168 2.144 0 00-.042-.44 2.127 2.103 0 00-.372-.833 2.064 2.041 0 00-1.279-.791 2.084 2.06 0 00-.38-.032 1.864 1.843 0 00-.379.044 1.795 1.775 0 00-.715.33 1.67 1.651 0 00-.236.22 1.765 1.745 0 00-.187.259 1.727 1.708 0 00-.215.592 1.608 1.59 0 00-.017.315 1.46 1.443 0 00.36.895 1.348 1.333 0 00.183.176 1.366 1.35 0 00.445.234 1.36 1.344 0 00.247.053 1.208 1.195 0 00.26 0 1.236 1.222 0 00.265-.052 1.186 1.172 0 00.251-.11 1.113 1.1 0 00.223-.177 1.041 1.03 0 00.213-.314 1.06 1.048 0 00.084-.372.875.865 0 00-.016-.207.853.843 0 00-.07-.21c-.164-.33-.407-.356-.445-.346-.013 0-.012.032-.01.044.035.257.041.52-.142.69a.583.577 0 01-.511.143.46.456 0 01-.153-.05.47.465 0 01-.131-.102.539.533 0 01-.112-.231.668.66 0 010-.263.81.8 0 01.1-.259.78.77 0 01.187-.211.845.836 0 01.172-.104.913.903 0 01.187-.06.982.971 0 01.196-.019 1.041 1.03 0 01.195.033 1.14 1.127 0 01.542.272 1.093 1.081 0 01.14.154 1.156 1.143 0 01.134.232 1.215 1.201 0 01.077.25 1.32 1.306 0 01.022.26 1.407 1.392 0 01-.024.263 1.49 1.473 0 01-.205.49 1.483 1.466 0 01-.17.21 1.42 1.404 0 01-.209.179 1.539 1.521 0 01-.298.162 1.602 1.584 0 01-.647.11 1.747 1.727 0 01-.328-.041 1.794 1.774 0 01-.318-.101 1.844 1.823 0 01-.295-.158 1.781 1.761 0 01-.263-.21 1.737 1.717 0 01-.222-.26 1.862 1.84 0 01-.299-.739 1.994 1.972 0 01-.025-.39 2.092 2.069 0 01.052-.39 2.16 2.136 0 01.125-.374 2.208 2.183 0 01.194-.35 2.152 2.128 0 01.258-.309 2.087 2.063 0 01.318-.257 2.166 2.141 0 01.426-.22 2.227 2.202 0 01.45-.12 2.358 2.332 0 01.463-.027 2.45 2.422 0 01.46.063 2.52 2.491 0 011.213.674 2.425 2.398 0 01.302.37 2.523 2.495 0 01.248.486 2.588 2.559 0 01.136.512 2.71 2.68 0 01.028.525 2.851 2.82 0 01-.249 1.019 2.851 2.82 0 01-.614.87 2.811 2.78 0 01-.431.337 2.895 2.862 0 01-.557.273 2.937 2.904 0 01-.587.148 3.109 3.074 0 01-.597.027 3.167 3.131 0 01-.593-.086 3.259 3.222 0 01-1.092-.492 3.197 3.16 0 01-.46-.39 3.13 3.095 0 01-.383-.483 3.229 3.193 0 01-.469-1.26 3.404 3.366 0 01-.03-.66 3.52 3.48 0 01.1-.653 3.563 3.523 0 01.223-.624 3.619 3.578 0 01.334-.576 3.53 3.49 0 01.446-.507 3.545 3.505 0 011.227-.748 3.623 3.582 0 01.722-.176 3.816 3.773 0 01.735-.03 3.911 3.868 0 01.727.11 3.973 3.928 0 01.696.244 3.921 3.877 0 011.206.854 3.786 3.743 0 01.465.597 3.897 3.853 0 01.362.744 3.99 3.945 0 01.193.782 4.17 4.123 0 01.03.796 4.293 4.245 0 01-.126.787 4.375 4.326 0 01-.27.752 4.319 4.27 0 01-.41.691 4.275 4.228 0 01-.54.61 4.096 4.05 0 01-.315.264 3.93 3.885 0 01-.347.236 4.154 4.108 0 01-.402.22 4.24 4.193 0 01-.415.17 4.321 4.273 0 01-.426.124 4.378 4.329 0 01-.434.08 4.332 4.284 0 01-.436.036 4.258 4.21 0 01-.438-.007 4.508 4.508 0 01-.861-.135 4.96 4.96 0 01-.824-.293 4.649 4.649 0 01-1.105-.715 4.582 4.53 0 01-.61-.647 4.505 4.454 0 01-.257-.372 4.716 4.664 0 01-.235-.43 4.646 4.594 0 01-.185-.44 4.745 4.692 0 01-.135-.457 4.97 4.97 0 01-.085-.462 4.329 4.329 0 01-.038-.467c-.005-.158 0-.311.008-.467a4.895 4.895 0 01.288-1.366 4.25 4.25 0 01.182-.433 4.85 4.85 0 01.784-1.177c.104-.116.222-.235.333-.34a4.774 4.72 0 01.373-.31 4.884 4.83 0 01.407-.274 5.001 4.945 0 01.469-.248 5.08 5.024 0 01.483-.195 4.951 4.896 0 01.495-.142 5.021 4.965 0 01.502-.09 5.04 5.04 0 011.015-.032 5.12 5.12 0 01.999.16 5.811 5.811 0 01.954.34 5.645 5.645 0 01.872.514 5.427 5.427 0 01.769.678 5.26 5.2 0 01.631.83c.058.095.111.193.166.292a.051.05 0 00.033.025.053.053 0 00.043-.006.051.05 0 00.019-.063 5.5 5.438 0 10-7.515 6.998 5.441 5.38 0 002.462.58 5.51 5.449 0 001.705-.268c.125-.046.271-.102.414-.17a5.122 5.064 0 00.483-.258zm-18.404 0a5.01 5.01 0 001.157-.97 5.245 5.245 0 00.582-.795c.085-.143.16-.287.228-.433.068-.145.131-.298.187-.45a4.45 4.45 0 00.142-.465 5.047 5.047 0 00.15-.96 4.915 4.86 0 000-.486 4.848 4.793 0 00-.044-.487 4.869 4.814 0 00-.238-.959 4.856 4.801 0 00-.445-.915 4.763 4.71 0 00-.915-1.062 5.033 5.033 0 00-1.157-.74 4.954 4.954 0 00-1.762-.437 4.515 4.464 0 00-.458 0c-.149.006-.304.02-.458.042a4.604 4.552 0 00-.453.088 4.434 4.384 0 00-.446.134 4.537 4.486 0 00-.436.183 4.6 4.55 0 00-.423.232 4.391 4.342 0 00-.362.25 7.564 7.564 0 00-.334.282 4.257 4.209 0 00-.297.308 5.47 5.47 0 00-.265.33 4.53 4.48 0 00-.704 1.519 4.446 4.396 0 00-.124.826c-.008.138-.008.28 0 .418.008.139.02.282.04.418a4.17 4.124 0 00.384 1.223 4.369 4.32 0 00.223.387 4.053 4.007 0 00.497.626 4.128 4.082 0 00.599.51 4.169 4.122 0 001.414.634 4.094 4.048 0 00.77.11 3.918 3.874 0 00.779-.038 3.86 3.816 0 00.766-.196 3.737 3.695 0 00.37-.16 3.816 3.773 0 00.358-.201 3.69 3.648 0 00.575-.452 3.754 3.712 0 00.468-.544 3.792 3.75 0 00.352-.614 3.841 3.798 0 00.23-.66 3.694 3.653 0 00.097-.694 3.602 3.562 0 00-.04-.703 3.49 3.45 0 00-.523-1.347 3.351 3.314 0 00-.417-.513 3.426 3.388 0 00-.5-.415 3.51 3.471 0 00-.564-.312 3.417 3.379 0 00-.61-.201 3.38 3.342 0 00-.637-.085 3.149 3.113 0 00-1.878.508 3.032 2.998 0 00-.464.374 3.085 3.05 0 00-.373.446 3.134 3.1 0 00-.279.502 3.092 3.057 0 00-.178.541 2.972 2.938 0 00-.073.565 2.847 2.815 0 00.04.57 2.784 2.752 0 00.16.559 2.847 2.815 0 00.287.53 2.727 2.696 0 00.74.721 2.759 2.728 0 00.939.393 2.672 2.642 0 00.507.059 2.465 2.437 0 001.48-.44 2.325 2.299 0 00.348-.297 2.408 2.381 0 00.616-1.166 2.282 2.257 0 00.045-.44 2.168 2.144 0 00-.042-.44 2.127 2.103 0 00-.372-.833 2.064 2.041 0 00-1.278-.791 2.084 2.06 0 00-.38-.032 1.864 1.843 0 00-.38.044 1.795 1.775 0 00-.714.33 1.67 1.651 0 00-.236.22 1.765 1.745 0 00-.187.26 1.727 1.708 0 00-.215.591 1.608 1.59 0 00-.018.315 1.46 1.443 0 00.36.895 1.348 1.333 0 00.183.176 1.366 1.35 0 00.446.234 1.36 1.344 0 00.247.053 1.208 1.195 0 00.26 0 1.236 1.222 0 00.264-.052 1.186 1.172 0 00.252-.11 1.113 1.1 0 00.222-.177 1.041 1.03 0 00.213-.314 1.06 1.048 0 00.085-.372.875.865 0 00-.017-.207.853.843 0 00-.069-.21c-.165-.33-.407-.356-.445-.346-.014 0-.013.032-.01.044.034.257.04.52-.143.69a.583.577 0 01-.51.143.46.456 0 01-.153-.05.47.465 0 01-.132-.102.539.533 0 01-.111-.23.668.66 0 010-.264.81.8 0 01.099-.259.78.77 0 01.187-.211.845.836 0 01.173-.104.913.903 0 01.187-.06.982.971 0 01.196-.019 1.041 1.03 0 01.199.02 1.14 1.127 0 01.542.272 1.093 1.081 0 01.14.154 1.156 1.143 0 01.127.247 1.215 1.201 0 01.077.25 1.32 1.306 0 01.022.258 1.407 1.392 0 01-.03.261 1.49 1.473 0 01-.205.489 1.483 1.466 0 01-.169.211 1.42 1.404 0 01-.21.179 1.539 1.521 0 01-.297.162 1.602 1.584 0 01-.647.11 1.747 1.727 0 01-.329-.041 1.794 1.774 0 01-.317-.101 1.844 1.823 0 01-.295-.158 1.781 1.761 0 01-.263-.21 1.737 1.717 0 01-.223-.261 1.862 1.84 0 01-.298-.738 1.994 1.972 0 01-.026-.39 2.092 2.069 0 01.053-.39 2.16 2.136 0 01.124-.374 2.208 2.183 0 01.194-.35 2.152 2.128 0 01.258-.309 2.087 2.063 0 01.319-.257 2.166 2.141 0 01.425-.22 2.227 2.202 0 01.451-.12 2.358 2.332 0 01.462-.027 2.45 2.422 0 01.46.063 2.52 2.491 0 011.214.673 2.425 2.398 0 01.301.371 2.523 2.495 0 01.249.486 2.588 2.559 0 01.135.512 2.71 2.68 0 01.028.525 2.851 2.82 0 01-.248 1.018 2.851 2.82 0 01-.615.87 2.811 2.78 0 01-.43.338 2.895 2.862 0 01-.557.273 2.937 2.904 0 01-.587.148 3.109 3.074 0 01-.598.027 3.167 3.131 0 01-.592-.086 3.259 3.222 0 01-1.092-.492 3.197 3.16 0 01-.464-.393 3.13 3.095 0 01-.383-.483 3.229 3.193 0 01-.462-1.254 3.404 3.366 0 01-.03-.66 3.52 3.48 0 01.1-.652 3.563 3.523 0 01.223-.625 3.619 3.578 0 01.334-.575 3.53 3.49 0 01.446-.508 3.545 3.505 0 011.232-.75 3.623 3.582 0 01.723-.176 3.816 3.773 0 01.735-.03 3.911 3.868 0 01.727.11 3.973 3.928 0 01.695.244 3.921 3.877 0 011.206.854 3.786 3.743 0 01.466.597 3.897 3.853 0 01.362.744 3.99 3.945 0 01.192.782 4.17 4.123 0 01.03.796 4.293 4.245 0 01-.123.785 4.375 4.326 0 01-.27.752 4.319 4.27 0 01-.41.691 4.275 4.228 0 01-.54.609 4.096 4.05 0 01-.316.265 3.93 3.885 0 01-.346.236 4.154 4.108 0 01-.402.22 4.24 4.193 0 01-.415.17 4.321 4.273 0 01-.427.124 4.378 4.329 0 01-.433.08 4.332 4.284 0 01-.436.036 4.258 4.21 0 01-.438-.007 4.508 4.508 0 01-.862-.135 4.96 4.96 0 01-.824-.293 4.65 4.65 0 01-1.104-.715 4.582 4.53 0 01-.61-.647 4.505 4.454 0 01-.257-.372 4.716 4.664 0 01-.235-.43 4.646 4.594 0 01-.185-.441 4.745 4.692 0 01-.135-.456 4.97 4.97 0 01-.086-.462 4.329 4.329 0 01-.037-.467c-.005-.159 0-.312.007-.467a4.892 4.892 0 01.288-1.366 4.25 4.25 0 01.182-.433c.07-.14.142-.278.223-.414a4.85 4.85 0 01.561-.763c.105-.116.223-.235.334-.341a4.774 4.72 0 01.373-.31 4.884 4.83 0 01.406-.274 5.001 4.945 0 01.47-.247 5.08 5.024 0 01.482-.195 4.951 4.896 0 01.496-.142 5.021 4.965 0 01.502-.09 5.04 5.04 0 011.014-.032 5.121 5.121 0 01.999.16 5.811 5.811 0 01.954.34 5.646 5.646 0 01.872.514 5.43 5.43 0 01.77.678 5.26 5.2 0 01.63.83c.059.095.112.193.167.292a.051.05 0 00.033.025.053.053 0 00.042-.007.051.05 0 00.02-.062 5.5 5.438 0 10-7.524 7.003 5.441 5.38 0 002.462.58 5.51 5.449 0 001.704-.269c.126-.046.272-.102.415-.17a5.122 5.064 0 00.49-.26z"></path></svg>