<svg xmlns="http://www.w3.org/2000/svg" width="32" height="32" viewBox="0 0 26 50" class="netflix"><path d="M.057.258C2.518.253 4.982.263 7.446.253c2.858 7.76 5.621 15.556 8.456 23.324.523 1.441 1.003 2.897 1.59 4.312.078-9.209.01-18.42.034-27.631h7.763v46.36c-2.812.372-5.637.627-8.457.957-1.203-3.451-2.396-6.902-3.613-10.348-1.796-5.145-3.557-10.302-5.402-15.428.129 8.954.015 17.912.057 26.871-2.603.39-5.227.637-7.815 1.119C.052 33.279.06 16.768.057.258z" fill="#E21221" fill-rule="evenodd"></path></svg>